<svg width="96" height="125" viewBox="0 0 96 125" fill="none" xmlns="http://www.w3.org/2000/svg">
<g filter="url(#filter0_d_24165_13062)">
<path d="M62.8558 9.99353C60.5881 9.99353 58.6113 14.8471 58.6113 22.3339C55.7188 21.6579 52.618 21.2806 49.301 21.2806C45.9841 21.2806 42.8833 21.6579 39.9908 22.3339C39.9908 14.8471 38.01 9.99353 35.7463 9.99353C26.9116 9.99353 14.1782 47.5608 14.1782 54.6506C14.1782 61.7404 28.3421 82.381 49.2971 82.381C70.2521 82.381 84.416 61.7365 84.416 54.6506C84.416 47.5648 71.6866 9.99353 62.8558 9.99353Z" fill="url(#paint0_linear_24165_13062)"/>
<path d="M63.1929 8.00427C64.8654 8.11256 66.3694 9.01267 67.6323 10.1146C69.0103 11.317 70.345 12.9708 71.6118 14.8607C74.1514 18.6494 76.6284 23.7029 78.7935 28.8949C80.9652 34.103 82.8563 39.5324 84.2075 44.1185C84.8831 46.4114 85.4285 48.511 85.8071 50.2787C86.1774 52.0075 86.4155 53.5422 86.4155 54.6508C86.4155 56.9436 85.3255 59.9298 83.6167 62.9564C81.8666 66.0561 79.3255 69.4492 76.1157 72.6C69.71 78.8877 60.4548 84.3811 49.2974 84.3812C38.14 84.3812 28.8848 78.8892 22.479 72.6019C19.2689 69.4512 16.7272 66.0575 14.9771 62.9574C13.2683 59.9305 12.1783 56.9444 12.1782 54.6508C12.1782 53.5418 12.4162 52.0067 12.7866 50.2777C13.1654 48.5097 13.7114 46.4096 14.3872 44.1166C15.7389 39.5303 17.6307 34.1008 19.8032 28.8929C21.969 23.7015 24.4474 18.6491 26.9878 14.8607C28.255 12.971 29.5898 11.3169 30.9683 10.1146C32.3161 8.9391 33.9386 7.99353 35.7466 7.99353L35.9937 8.00232C37.215 8.085 38.1814 8.77088 38.8647 9.54626C39.5931 10.3728 40.1602 11.4657 40.5981 12.6752C41.2896 14.5851 41.7518 17.0487 41.9194 19.9027C44.2616 19.4987 46.7217 19.2806 49.3013 19.2806C51.8805 19.2807 54.3402 19.4988 56.6821 19.9027C56.8495 17.0493 57.3115 14.586 58.0024 12.6761C58.4401 11.4665 59.007 10.3731 59.7358 9.54626C60.4656 8.71847 61.5171 7.99353 62.856 7.99353L63.1929 8.00427Z" fill="#FF953F" stroke="white" stroke-width="4"/>
<path d="M62.7264 43.4932H62.1762C61.1148 43.4932 60.2544 44.3536 60.2544 45.415V47.2621C60.2544 48.3235 61.1148 49.1839 62.1762 49.1839H62.7264C63.7878 49.1839 64.6482 48.3235 64.6482 47.2621V45.415C64.6482 44.3536 63.7878 43.4932 62.7264 43.4932Z" fill="#2F1708"/>
<path d="M36.4185 43.4931H35.8683C34.8069 43.4931 33.9465 44.3535 33.9465 45.4149V47.262C33.9465 48.3234 34.8069 49.1838 35.8683 49.1838H36.4185C37.4799 49.1838 38.3403 48.3234 38.3403 47.262V45.4149C38.3403 44.3535 37.4799 43.4931 36.4185 43.4931Z" fill="#2F1708"/>
<path d="M76.3696 72.8065C78.2578 70.9542 81.437 72.295 81.437 74.9335V77.6844C81.437 80.8771 79.9745 83.9195 77.4224 85.8719L77.1714 86.0575C72.6986 89.2651 67.8751 91.6902 62.8696 93.2616L61.1021 93.8163L61.0835 93.7704C61.0016 93.7931 60.9195 93.8155 60.8374 93.8378C61.4998 95.3666 61.8686 97.0525 61.8687 98.8241C61.8687 106.026 55.807 111.817 48.5093 111.364C42.2483 110.975 37.167 105.898 36.769 99.6385L36.7681 99.6376C36.6385 97.5735 37.0105 95.6045 37.772 93.8427C37.0228 93.6391 36.2821 93.417 35.5503 93.1776L35.519 93.2264L34.0503 92.703C29.6514 91.1369 25.414 88.9102 21.4517 86.0702L21.2007 85.8846C18.6452 83.9332 17.1733 80.8876 17.1733 77.6884V74.9413C17.1733 72.3693 20.1637 71.0639 22.0562 72.6473L22.2358 72.8094L22.2563 72.83L22.9976 73.5428C30.7095 80.7954 40.0256 84.704 49.3013 84.704C58.8758 84.7039 68.4898 80.5391 76.3462 72.83L76.3491 72.827L76.3569 72.8182L76.3638 72.8124L76.3696 72.8065Z" fill="#974EF2" stroke="white" stroke-width="4"/>
<path d="M47.2577 44.1022L45.9058 41.0565C45.1041 39.2761 43.3159 38.1207 41.3548 38.1207H32.2882C29.1442 38.1207 26.5857 35.5623 26.5857 32.4182V30.5043C26.5857 29.4746 27.4189 28.6375 28.4525 28.6375C29.4861 28.6375 30.3192 29.4707 30.3192 30.5043V32.4182C30.3192 33.5068 31.2035 34.3911 32.2921 34.3911H41.3587C44.7779 34.3911 47.8944 36.3994 49.3053 39.5119C50.724 36.3994 53.8366 34.3911 57.2518 34.3911H66.3185C67.4071 34.3911 68.2913 33.5068 68.2913 32.4182V30.5043C68.2913 29.4746 69.1245 28.6375 70.1581 28.6375C71.1917 28.6375 72.0249 29.4707 72.0249 30.5043V32.4182C72.0249 35.5623 69.4664 38.1207 66.3224 38.1207H57.2558C55.2947 38.1207 53.5065 39.2761 52.7008 41.0643L51.3528 44.1022H47.2695H47.2577Z" fill="#FFFAF6"/>
<path d="M45.5831 42.2237L35.5025 66.3188C34.3942 68.9715 36.3396 71.8994 39.2164 71.8994H59.3815C62.2582 71.8994 64.2076 68.9715 63.0953 66.3188L53.0148 42.2237C51.6353 38.9263 46.9664 38.9263 45.587 42.2237H45.5831Z" fill="#FFFAF6"/>
<path d="M47.7877 46.3423H43.8615L42.3524 49.3881C41.5507 51.1684 39.7625 52.3239 37.8014 52.3239H28.7348C25.5908 52.3239 22.7769 55.4483 22.7769 58.5294C22.7769 61.6106 25.2999 65.6389 30.0356 70.2842C33.2937 73.4832 40.128 78.8438 49.3007 78.8438C58.4735 78.8438 65.3078 73.4793 68.5658 70.2842C73.3015 65.6349 75.8246 61.6066 75.8246 58.5294C75.8246 55.4522 73.0107 52.3239 69.8667 52.3239H60.8C58.8389 52.3239 57.0508 51.1684 56.2491 49.3881L54.7399 46.3423H50.8138H47.7955H47.7877Z" fill="#FFFAF6"/>
<path d="M55.6755 96.8555L48.9944 103.537C48.4953 104.036 47.6818 104.036 47.1787 103.537L42.8557 99.2135C42.5413 98.8991 42.5413 98.3882 42.8557 98.0738L43.8578 97.0716C44.1722 96.7572 44.6831 96.7572 44.9975 97.0716L48.0905 100.165L53.5415 94.7136C53.8559 94.3992 54.3668 94.3992 54.6812 94.7136L55.6833 95.7157C55.9977 96.0301 55.9977 96.5411 55.6833 96.8555H55.6755Z" fill="#FFFAF6"/>
<path d="M53.2706 42.0429C53.2706 39.8775 55.0274 38.1247 57.1889 38.1247H57.971V37.1107L58.3286 36.3719L54.6501 37.2994L50.9519 40.4984L52.072 43.8861L53.5615 43.5403C53.3689 43.0805 53.2628 42.5735 53.2628 42.0429H53.2706Z" fill="#FFFAF6"/>
<path d="M45.3277 42.0429C45.3277 39.8775 43.571 38.1247 41.4095 38.1247H40.6274V37.1107L40.2698 36.3719L43.9483 37.2994L47.6465 40.4984L46.5264 43.8861L45.0369 43.5403C45.2295 43.0805 45.3356 42.5735 45.3356 42.0429H45.3277Z" fill="#FFFAF6"/>
<path d="M56.9451 59.8856C56.6307 59.8856 56.3556 60.09 56.2691 60.3926C56.163 60.766 55.9587 61.1039 55.6482 61.3633C53.0426 63.5327 50.0832 61.7092 50.0832 59.2057V57.8499C50.0832 57.4215 50.268 57.0128 50.5941 56.7337C51.8714 55.6333 55.1019 52.8233 55.1019 52.8233C56.1669 51.8958 55.5106 50.147 54.0997 50.147H44.4908C43.0799 50.147 42.4236 51.8958 43.4886 52.8233C43.4886 52.8233 46.7191 55.6294 47.9964 56.7337C48.3226 57.0128 48.5073 57.4215 48.5073 57.8499V59.1035C48.5073 60.707 47.3401 62.1297 45.7445 62.3105C44.2825 62.4755 42.9895 61.6227 42.4825 60.373C42.3686 60.0861 42.1052 59.8896 41.7948 59.8896H41.7319C41.1856 59.8896 40.8201 60.4437 41.0245 60.9507C41.7162 62.6799 43.4061 63.9021 45.379 63.9021C47.0099 63.9021 48.4483 63.065 49.2894 61.8035C50.1304 63.069 51.5688 63.9021 53.1998 63.9021C55.2237 63.9021 56.9451 62.617 57.6053 60.821C57.7704 60.369 57.4206 59.8896 56.9372 59.8896L56.9451 59.8856Z" fill="#2F1708"/>
</g>
<defs>
<filter id="filter0_d_24165_13062" x="0.937525" y="0.752832" width="94.7192" height="123.877" filterUnits="userSpaceOnUse" color-interpolation-filters="sRGB">
<feFlood flood-opacity="0" result="BackgroundImageFix"/>
<feColorMatrix in="SourceAlpha" type="matrix" values="0 0 0 0 0 0 0 0 0 0 0 0 0 0 0 0 0 0 127 0" result="hardAlpha"/>
<feMorphology radius="2.2407" operator="dilate" in="SourceAlpha" result="effect1_dropShadow_24165_13062"/>
<feOffset dx="-1" dy="3"/>
<feGaussianBlur stdDeviation="3"/>
<feComposite in2="hardAlpha" operator="out"/>
<feColorMatrix type="matrix" values="0 0 0 0 0.262745 0 0 0 0 0.188235 0 0 0 0 0.168627 0 0 0 0.2 0"/>
<feBlend mode="normal" in2="BackgroundImageFix" result="effect1_dropShadow_24165_13062"/>
<feBlend mode="normal" in="SourceGraphic" in2="effect1_dropShadow_24165_13062" result="shape"/>
</filter>
<linearGradient id="paint0_linear_24165_13062" x1="49.2971" y1="112.053" x2="49.2971" y2="24.8177" gradientUnits="userSpaceOnUse">
<stop stop-color="#AA52E5"/>
<stop offset="1" stop-color="#FF9469"/>
</linearGradient>
</defs>
</svg>
